<mxfile host="Electron" agent="Mozilla/5.0 (Macintosh; Intel Mac OS X 10_15_7) AppleWebKit/537.36 (KHTML, like Gecko) draw.io/28.1.2 Chrome/138.0.7204.243 Electron/37.4.0 Safari/537.36" version="28.1.2">
  <diagram name="Page-1" id="VgDymT5_iToIgLZdXw6S">
    <mxGraphModel dx="976" dy="755" grid="1" gridSize="10" guides="1" tooltips="1" connect="1" arrows="1" fold="1" page="1" pageScale="1" pageWidth="827" pageHeight="1169" background="#ffffff" math="0" shadow="0">
      <root>
        <mxCell id="0" />
        <mxCell id="1" parent="0" />
        <mxCell id="M0HNFGNK60IcD-Z8UxJ4-6" value="" style="rounded=0;whiteSpace=wrap;html=1;gradientColor=#FFF9D2;" vertex="1" parent="1">
          <mxGeometry x="120" y="260" width="300" height="210" as="geometry" />
        </mxCell>
        <mxCell id="M0HNFGNK60IcD-Z8UxJ4-2" value="VPC" style="sketch=0;outlineConnect=0;gradientColor=none;html=1;whiteSpace=wrap;fontSize=12;fontStyle=0;shape=mxgraph.aws4.group;grIcon=mxgraph.aws4.group_vpc;strokeColor=#879196;fillColor=default;verticalAlign=top;align=left;spacingLeft=30;fontColor=#879196;dashed=0;" vertex="1" parent="1">
          <mxGeometry x="230" y="270" width="180" height="190" as="geometry" />
        </mxCell>
        <mxCell id="M0HNFGNK60IcD-Z8UxJ4-4" value="Public subnet" style="points=[[0,0],[0.25,0],[0.5,0],[0.75,0],[1,0],[1,0.25],[1,0.5],[1,0.75],[1,1],[0.75,1],[0.5,1],[0.25,1],[0,1],[0,0.75],[0,0.5],[0,0.25]];outlineConnect=0;gradientColor=none;html=1;whiteSpace=wrap;fontSize=12;fontStyle=0;container=1;pointerEvents=0;collapsible=0;recursiveResize=0;shape=mxgraph.aws4.group;grIcon=mxgraph.aws4.group_security_group;grStroke=0;strokeColor=#7AA116;fillColor=#F2F6E8;verticalAlign=top;align=left;spacingLeft=30;fontColor=#248814;dashed=0;" vertex="1" parent="1">
          <mxGeometry x="250" y="300" width="140" height="150" as="geometry" />
        </mxCell>
        <mxCell id="M0HNFGNK60IcD-Z8UxJ4-1" value="Amazon EC2" style="sketch=0;outlineConnect=0;fontColor=#232F3E;gradientColor=none;strokeColor=#ffffff;fillColor=#232F3E;dashed=0;verticalLabelPosition=middle;verticalAlign=bottom;align=center;html=1;whiteSpace=wrap;fontSize=10;fontStyle=1;spacing=3;shape=mxgraph.aws4.productIcon;prIcon=mxgraph.aws4.ec2;" vertex="1" parent="M0HNFGNK60IcD-Z8UxJ4-4">
          <mxGeometry x="30" y="30" width="80" height="100" as="geometry" />
        </mxCell>
        <mxCell id="_giiExtIUJitpKC06nbd-52" value="" style="rounded=0;whiteSpace=wrap;html=1;gradientColor=#EBFFEC;" parent="1" vertex="1">
          <mxGeometry x="440" y="260" width="440" height="210" as="geometry" />
        </mxCell>
        <mxCell id="_giiExtIUJitpKC06nbd-6" value="Config Notification&lt;br&gt;SQS handler" style="sketch=0;outlineConnect=0;fontColor=#232F3E;gradientColor=none;fillColor=#ED7100;strokeColor=none;dashed=0;verticalLabelPosition=bottom;verticalAlign=top;align=center;html=1;fontSize=12;fontStyle=0;aspect=fixed;pointerEvents=1;shape=mxgraph.aws4.lambda_function;" parent="1" vertex="1">
          <mxGeometry x="780" y="356" width="48" height="48" as="geometry" />
        </mxCell>
        <mxCell id="_giiExtIUJitpKC06nbd-41" style="edgeStyle=orthogonalEdgeStyle;rounded=0;orthogonalLoop=1;jettySize=auto;html=1;" parent="1" source="_giiExtIUJitpKC06nbd-22" target="_giiExtIUJitpKC06nbd-24" edge="1">
          <mxGeometry relative="1" as="geometry" />
        </mxCell>
        <mxCell id="_giiExtIUJitpKC06nbd-22" value="Config Change&lt;br&gt;SNS Topic" style="sketch=0;outlineConnect=0;fontColor=#232F3E;gradientColor=none;fillColor=#7AA116;strokeColor=none;dashed=0;verticalLabelPosition=bottom;verticalAlign=top;align=center;html=1;fontSize=12;fontStyle=0;aspect=fixed;pointerEvents=1;shape=mxgraph.aws4.topic_2;" parent="1" vertex="1">
          <mxGeometry x="490" y="341" width="53" height="78" as="geometry" />
        </mxCell>
        <mxCell id="_giiExtIUJitpKC06nbd-26" style="edgeStyle=orthogonalEdgeStyle;rounded=0;orthogonalLoop=1;jettySize=auto;html=1;" parent="1" source="_giiExtIUJitpKC06nbd-24" target="_giiExtIUJitpKC06nbd-6" edge="1">
          <mxGeometry relative="1" as="geometry" />
        </mxCell>
        <mxCell id="_giiExtIUJitpKC06nbd-24" value="Notifications&lt;br&gt;SQS Queue" style="sketch=0;points=[[0,0,0],[0.25,0,0],[0.5,0,0],[0.75,0,0],[1,0,0],[0,1,0],[0.25,1,0],[0.5,1,0],[0.75,1,0],[1,1,0],[0,0.25,0],[0,0.5,0],[0,0.75,0],[1,0.25,0],[1,0.5,0],[1,0.75,0]];outlineConnect=0;fontColor=#232F3E;fillColor=#E7157B;strokeColor=#ffffff;dashed=0;verticalLabelPosition=bottom;verticalAlign=top;align=center;html=1;fontSize=12;fontStyle=0;aspect=fixed;shape=mxgraph.aws4.resourceIcon;resIcon=mxgraph.aws4.sqs;" parent="1" vertex="1">
          <mxGeometry x="620" y="341" width="78" height="78" as="geometry" />
        </mxCell>
        <mxCell id="_giiExtIUJitpKC06nbd-31" style="edgeStyle=orthogonalEdgeStyle;rounded=0;orthogonalLoop=1;jettySize=auto;html=1;" parent="1" source="M0HNFGNK60IcD-Z8UxJ4-9" target="M0HNFGNK60IcD-Z8UxJ4-1" edge="1">
          <mxGeometry relative="1" as="geometry">
            <mxPoint x="110" y="99" as="targetPoint" />
            <Array as="points" />
          </mxGeometry>
        </mxCell>
        <mxCell id="_giiExtIUJitpKC06nbd-30" value="API client" style="html=1;verticalLabelPosition=bottom;align=center;labelBackgroundColor=#ffffff;verticalAlign=top;strokeWidth=2;strokeColor=#0080F0;shadow=0;dashed=0;shape=mxgraph.ios7.icons.user;" parent="1" vertex="1">
          <mxGeometry x="60" y="365" width="30" height="30" as="geometry" />
        </mxCell>
        <mxCell id="_giiExtIUJitpKC06nbd-53" value="&lt;b&gt;Notifications Stack&lt;/b&gt;" style="text;html=1;align=center;verticalAlign=middle;resizable=0;points=[];autosize=1;strokeColor=none;fillColor=none;" parent="1" vertex="1">
          <mxGeometry x="440" y="260" width="130" height="30" as="geometry" />
        </mxCell>
        <mxCell id="M0HNFGNK60IcD-Z8UxJ4-7" value="App Stack" style="text;html=1;align=center;verticalAlign=middle;resizable=0;points=[];autosize=1;strokeColor=none;fillColor=none;fontStyle=1" vertex="1" parent="1">
          <mxGeometry x="120" y="260" width="80" height="30" as="geometry" />
        </mxCell>
        <mxCell id="M0HNFGNK60IcD-Z8UxJ4-10" value="" style="edgeStyle=orthogonalEdgeStyle;rounded=0;orthogonalLoop=1;jettySize=auto;html=1;" edge="1" parent="1" source="_giiExtIUJitpKC06nbd-30" target="M0HNFGNK60IcD-Z8UxJ4-9">
          <mxGeometry relative="1" as="geometry">
            <mxPoint x="80" y="370" as="sourcePoint" />
            <mxPoint x="250" y="370" as="targetPoint" />
            <Array as="points" />
          </mxGeometry>
        </mxCell>
        <mxCell id="M0HNFGNK60IcD-Z8UxJ4-9" value="Internet&lt;br&gt;Gateway" style="sketch=0;outlineConnect=0;fontColor=#232F3E;gradientColor=none;fillColor=#8C4FFF;strokeColor=none;dashed=0;verticalLabelPosition=bottom;verticalAlign=top;align=center;html=1;fontSize=12;fontStyle=0;aspect=fixed;pointerEvents=1;shape=mxgraph.aws4.internet_gateway;" vertex="1" parent="1">
          <mxGeometry x="152" y="341" width="78" height="78" as="geometry" />
        </mxCell>
        <mxCell id="M0HNFGNK60IcD-Z8UxJ4-11" style="edgeStyle=orthogonalEdgeStyle;rounded=0;orthogonalLoop=1;jettySize=auto;html=1;" edge="1" parent="1" source="M0HNFGNK60IcD-Z8UxJ4-1" target="_giiExtIUJitpKC06nbd-22">
          <mxGeometry relative="1" as="geometry" />
        </mxCell>
      </root>
    </mxGraphModel>
  </diagram>
</mxfile>
